# xmcd
#
# Track frame offsets:
#	150
#	16159
#	32901
#	51402
#	67269
#	81477
#	87251
#	92967
#	98879
#	115762
#	127918
#	140260
#	152564
#	166809
#
# Disc length: 2337 seconds
#
# Revision: 1
# Processed by: cddbd v1.5.2PL0 Copyright (c) Steve Scherf et al.
# Submitted via: audiograbber 1.83.01
#
DISCID=b6091f0e
DTITLE=Diaforoi - Elafria Ellinika tragoudia
DYEAR=1900
DGENRE=laika
TTITLE0=8a r8w mia nyxta me feggari
TTITLE1=Megale moy erwta
TTITLE2=Oti ston kosmo zitas
TTITLE3=Alimono se sena
TTITLE4=Pipitsa
TTITLE5=Agwnia
TTITLE6=Martirio
TTITLE7=An mporousa
TTITLE8=Kitrino f8inoporo
TTITLE9=Ki omos yparxei xara
TTITLE10=Kalos il8es sta oneira moy
TTITLE11=Mi les tipota
TTITLE12=Dyo prasina matia
TTITLE13=Den einai anagki na moy peis pws magapas
EXTD=
EXTT0=
EXTT1=
EXTT2=
EXTT3=
EXTT4=
EXTT5=
EXTT6=
EXTT7=
EXTT8=
EXTT9=
EXTT10=
EXTT11=
EXTT12=
EXTT13=
PLAYORDER=
